# xmcd
#
# Track frame offsets:
#	150
#	16572
#	24667
#	41135
#	54207
#	69220
#	89777
#	104775
#	128467
#	140952
#	151992
#	175617
#	178815
#	186112
#
# Disc length: 2620 seconds
#
# Revision: 1
# Processed by: cddbd v1.5.1PL0 Copyright (c) Steve Scherf et al.
# Submitted via: CDex 1.50Beta5
#
DISCID=ba0a3a0e
DTITLE=演劇実験室天井桟敷 - 天井桟敷 阿呆船
DYEAR=1900
DGENRE=
TTITLE0=イントロダクション
TTITLE1=法王庁の穴掘り
TTITLE2=紡錘形の理性
TTITLE3=眠り男
TTITLE4=電気の悪魔
TTITLE5=人間犬
TTITLE6=G線上の縄とび
TTITLE7=患者の麦
TTITLE8=水死人
TTITLE9=人動説
TTITLE10=阿呆船
TTITLE11=〜大滅亡
TTITLE12=出帆
TTITLE13=エンディング
EXTD=
EXTT0=
EXTT1=
EXTT2=
EXTT3=
EXTT4=
EXTT5=
EXTT6=
EXTT7=
EXTT8=
EXTT9=
EXTT10=
EXTT11=
EXTT12=
EXTT13=
PLAYORDER=
